<svg xmlns="http://www.w3.org/2000/svg" height="800" width="800" viewBox="0 0 503 503" xmlns:v="https://vecta.io/nano"><path d="M171.4 313.5l35.8 35.8c-30 41.8-60.6 72.5-93 84.5 1.7 11-1 22.2-9.4 30.7a33 33 0 0 1-47.8 0 34 34 0 0 1 0-48.6c8.5-8.5 19.6-11 30-9.4 12-32.4 48.6-69 84.5-93" fill="#ae938d"/><path d="M388.2 3.8S518.7 111.3 419 211c-96.4 96.4-175 127-175 127l-36.7 12-35.8-35.8 66.6-66.6c24-24 72.5-72.5 84.5-132.3 58-59.7 65.7-111.8 65.7-111.8" fill="#e4f2de"/><path d="M159.5 503c-13.7 0-27.3-6-39.3-17-1.7-1.7-1.7-4.3 0-6s4.3-1.7 6 0a45 45 0 0 0 66.6 0l35.8-35.8c9.4-9.4 14.5-21.3 14.5-33.3s-5-24-14.5-33.3L208 357c-31.6 43.5-59.7 69-88.7 80.2 1 11-3.4 22.2-11 30.7a38 38 0 0 1-54.6 0 38 38 0 0 1 0-54.6c7.7-7.7 19.6-12 30.7-11 12-29 42.7-63 80.2-88.7L132.2 281c-1.7-1.7-1.7-4.3 0-6s4.3-1.7 6 0l33.3 33.3 63-63c23-23 71.7-71.7 83.6-130.6 0-1 1-1.7 1-2.6C375.4 55.8 383 4.6 384 3.8c0-1.7 1-2.6 2.6-3.4s3.4 0 4.3 1c2.6 2.6 66.6 55.5 70 123 1.7 32.4-11 63-38.4 90.5-96.4 96.4-175.8 127-176.6 128-2.6 1-4.3 0-5-2.6s0-4.3 2.6-5c1 0 78.5-30.7 173.2-125.4C442 183.8 454 155.7 453 125c-2.6-53-46-98-61.4-111.8-4.3 17-18.8 59-65 105-12.8 61.4-61.4 110-85.3 134l-63 63 57.2 57.2c22.2 22.2 22.2 56.3 0 78.5l-35.8 35.8C186.8 497 173 503 159.5 503zM81 410.8c-7.7 0-15.4 3.4-21.3 8.5a30 30 0 0 0 0 42.7 30 30 0 0 0 42.7 0c6.8-6.8 10.2-17 8.5-26.5 0-1.7 1-4.3 2.6-5 29-10.2 57.2-35.8 88.7-80.2l-31.6-31.6c-38.4 26.5-70 61.4-79.4 88.7-1 1.7-2.6 3.4-5 2.6-1.7 1-3.4 1-5 1zm187-140.8c-1 0-2.6 0-3.4-1-1.7-1.7-1.7-4.3 0-6 1-1 77.7-77.7 83.6-130.6 0-1 1-1.7 1-2.6 18-18 35.8-35.8 47-70.8 1-2.6 3.4-3.4 5-2.6 2.6 1 3.4 3.4 2.6 5-12 36.7-30.7 55.5-48.6 73.4-7.7 55.5-82 130.6-85.3 134 1 0-1 1-1.7 1z" fill="#51565f"/></svg>